<svg fill="none" height="99" viewBox="0 0 108 99" width="108" xmlns="http://www.w3.org/2000/svg" xmlns:xlink="http://www.w3.org/1999/xlink"><linearGradient id="a" gradientUnits="userSpaceOnUse" x1="16.7213" x2="16.9504" y1="4.45468" y2="170.982"><stop offset="0" stop-color="#318035"/><stop offset=".252966" stop-color="#4caf50"/></linearGradient><linearGradient id="b" gradientUnits="userSpaceOnUse" x1="93.2564" x2="94.2127" y1="49.3735" y2="-84.3043"><stop offset="0" stop-color="#4caf50"/><stop offset=".515625" stop-color="#cfe642" stop-opacity=".079321"/><stop offset=".995642" stop-color="#ebbb42" stop-opacity="0"/></linearGradient><path d="m.922963 80.5609c.276077 5.3312 2.001227 8.3177 4.150707 11.0262 2.33784 2.9512 7.83093 7.2039 14.85333 7.2039 8.2919 0 13.6332-5.5658 13.6332-5.5658 2.1359-1.7789 10.406-10.2721 13.6231-13.5959-.7439.529-2.2487 1.3097-4.7239 1.3097-3.7148 0-8.8992-3.0546-8.8992-8.6007 0-.3699 0-.816 0-1.309v-24.4888-30.7415c-.5671-8.51696-7.6915-15.271412-16.3438-15.271412-8.65432 0-15.778 6.754452-16.345123 15.271412v64.7619z" fill="url(#a)"/><path d="m88.9484 61.4488 3.3551 3.5285s2.6465 2.5412 6.0037 2.5412c3.3548 0 7.8328-2.0495 8.8988-8.3103v-43.1188c-.565-8.51363-7.6891-15.267379-16.3455-15.267379s-15.7787 6.754429-16.3438 15.267379v30.7292c.372.3896.7106.7201 1.105 1.1465z" fill="url(#b)"/><path d="m42.3527 81.0614c2.4698 0 3.9807-.784 4.724-1.3097.3747-.2625.5657-.4692.5657-.4692s2.4569-3.3789 6.0514-3.3789c3.5958 0 4.8837 1.6973 4.8837 1.6973s7.3909 7.4643 14.1746 14.316c6.7803 6.8558 11.7327 6.7878 11.7327 6.7878 7.0863 1.0465 11.5818-1.5599 11.5818-1.5599 9.9554-4.5574 11.0184-14.8574 11.1254-16.4193.008-.1292.014-.2169.014-.2169v-21.4221c-1.066 6.2587-5.544 8.3103-8.8988 8.3103-3.3572 0-6.0037-2.5412-6.0037-2.5412l-3.3551-3.5264-13.3267-13.4878c-.3978-.4264-.7344-.7521-1.105-1.1465-6.5708-6.8381-9.5757-7.9601-9.5757-7.9601-3.0546-1.8346-7.4766-2.6506-11.5478-2.6506-4.0691 0-8.1389 1.632-8.1389 1.632-4.8301 1.2178-11.8007 8.9549-11.8007 8.9549v24.482 1.307c0 5.5467 5.1884 8.6013 8.8991 8.6013z" fill="#4caf50"/></svg>