<svg width="19" height="20" viewBox="0 0 19 20" fill="none" xmlns="http://www.w3.org/2000/svg">
<path d="M2.86414 19.7903H14.1087C15.2878 19.7903 16.2436 18.8345 16.2436 17.6554V12.1927V4.59507V2.31201C16.2436 1.13295 15.2878 0.177124 14.1087 0.177124H5.11037C4.41995 0.177124 3.77216 0.511008 3.37157 1.07333L1.12534 4.22645C0.867705 4.5881 0.729248 5.0211 0.729248 5.46514V17.6554C0.729248 18.8345 1.68507 19.7903 2.86414 19.7903Z" fill="#FF9700"/>
<path fill-rule="evenodd" clip-rule="evenodd" d="M2.86414 19.6835H14.1087C15.2288 19.6835 16.1369 18.7755 16.1369 17.6554V2.31201C16.1369 1.1919 15.2288 0.283869 14.1087 0.283869H5.11037C4.45447 0.283869 3.83907 0.601058 3.45851 1.13526L1.21228 4.28838C0.967527 4.63196 0.835993 5.0433 0.835993 5.46514V17.6554C0.835993 18.7755 1.74402 19.6835 2.86414 19.6835ZM14.1087 19.7903H2.86414C1.68507 19.7903 0.729248 18.8345 0.729248 17.6554V5.46514C0.729248 5.0211 0.867705 4.5881 1.12534 4.22645L3.37157 1.07333C3.77216 0.511008 4.41995 0.177124 5.11037 0.177124H14.1087C15.2878 0.177124 16.2436 1.13295 16.2436 2.31201V17.6554C16.2436 18.8345 15.2878 19.7903 14.1087 19.7903Z" fill="#FF9700"/>
<path d="M11.8651 12.4235C11.7817 12.3402 11.7817 12.205 11.8651 12.1216L15.5771 8.40962C15.6604 8.32625 15.7956 8.32625 15.879 8.40962L17.049 9.57962C17.1324 9.66299 17.1324 9.79817 17.049 9.88154L13.337 13.5935C13.2536 13.6769 13.1184 13.6769 13.0351 13.5935L11.8651 12.4235Z" fill="#FFD5A3"/>
<path d="M16.2082 8.20685C16.0455 8.04414 16.0455 7.78032 16.2082 7.61761V7.61761C16.3709 7.45489 16.6347 7.45489 16.7974 7.61761L17.8408 8.66102C18.0036 8.82373 18.0036 9.08755 17.8409 9.25026V9.25026C17.6781 9.41298 17.4143 9.41298 17.2516 9.25026L16.2082 8.20685Z" fill="#FFD5A3"/>
<path fill-rule="evenodd" clip-rule="evenodd" d="M11.8974 12.1148L11.2201 14.0068C11.1907 14.0887 11.2665 14.1694 11.3501 14.1453L13.3709 13.5631C13.4496 13.5405 13.4745 13.4413 13.4158 13.3841L12.0724 12.0743C12.0167 12.02 11.9236 12.0416 11.8974 12.1148ZM11.9036 12.6424L11.5098 13.7422C11.4805 13.8242 11.5562 13.9049 11.6399 13.8808L12.8146 13.5424C12.8933 13.5197 12.9182 13.4205 12.8595 13.3634L12.0786 12.6019C12.0229 12.5477 11.9298 12.5692 11.9036 12.6424Z" fill="#FFD5A3"/>
<path d="M5.20288 4.16406H13.448V5.06316H5.20288V4.16406Z" fill="#FFD5A3"/>
<path d="M2.64526 8.25867H13.4482V9.15777H2.64526V8.25867Z" fill="#FFD5A3"/>
<path d="M5.20288 6.21912H13.448V7.11821H5.20288V6.21912Z" fill="#FFD5A3"/>
<path d="M2.4668 10.2982H10.712V11.1973H2.4668V10.2982Z" fill="#FFD5A3"/>
<path d="M2.4668 12.3375H8.58783V13.2366H2.4668V12.3375Z" fill="#FFD5A3"/>
<path d="M2.4668 14.3771H8.58783V15.2762H2.4668V14.3771Z" fill="#FFD5A3"/>
<path fill-rule="evenodd" clip-rule="evenodd" d="M4.37067 3.8074V0.275391H4.58416V3.8074C4.58416 4.45589 4.05845 4.98159 3.40997 4.98159H2.46777V4.7681H3.40997C3.94055 4.7681 4.37067 4.33798 4.37067 3.8074Z" fill="#FFD5A3"/>
</svg>
