<svg fill="none" height="24" viewBox="0 0 24 24" width="24" xmlns="http://www.w3.org/2000/svg" xmlns:xlink="http://www.w3.org/1999/xlink"><clipPath id="a"><path d="m.284546.892578h23v23h-23z"/></clipPath><g clip-path="url(#a)"><path d="m23.2846 12.6566c0-.7818-.0647-1.5677-.2027-2.3368h-11.0667v4.4285h6.3374c-.263 1.4282-1.108 2.6917-2.3453 3.4945v2.8735h3.7809c2.2202-2.003 3.4964-4.9609 3.4964-8.4597z" fill="#4285f4"/><path d="m12.0152 23.8925c3.1644 0 5.833-1.0183 7.7773-2.7762l-3.7809-2.8734c-1.0519.7014-2.4099 1.0987-3.9921 1.0987-3.06093 0-5.65624-2.0241-6.58745-4.7454h-3.90159v2.9621c1.99175 3.8834 6.04854 6.3342 10.48474 6.3342z" fill="#34a853"/><path d="m5.42771 14.5962c-.49147-1.4283-.49147-2.9748 0-4.4031v-2.96214h-3.89728c-1.664108 3.24954-1.664108 7.07794 0 10.32744z" fill="#fbbc04"/><path d="m12.0152 5.4436c1.6727-.02535 3.2894.59159 4.5008 1.72405l3.3498-3.2833c-2.1211-1.95223-4.9363-3.025534-7.8506-2.991729-4.4362 0-8.49299 2.450849-10.48474 6.338419l3.89728 2.96216c.9269-2.72553 3.52652-4.7496 6.58746-4.7496z" fill="#ea4335"/></g></svg>