<svg fill="none" height="14" viewBox="0 0 10 14" width="10" xmlns="http://www.w3.org/2000/svg"><path clip-rule="evenodd" d="m10 5.62202c0 1.07676-.38495 2.06897-1.03247 2.8616l-3.5564 5.22028c-.19671.2887-.64532.2887-.84204 0l-3.713163-5.45037c-.024354-.03383-.048249-.06799-.071686-.10245-.021729-.03196-.043061-.0642-.063996-.0967l-.041656-.06117c-.01535-.02254-.028351-.04558-.039124-.06894-.407196-.68046-.639465-1.46585-.639465-2.30225 0-2.59663 2.23859-4.70161 5-4.70161s5 2.10498 5 4.70161zm-5 1.30071c.96649 0 1.75-.73674 1.75-1.64556s-.78351-1.64557-1.75-1.64557-1.75.73675-1.75 1.64557.78351 1.64556 1.75 1.64556z" fill="#dc483c" fill-rule="evenodd"/></svg>