<svg width="22" height="23" viewBox="0 0 22 23" fill="none" xmlns="http://www.w3.org/2000/svg">
<path fill-rule="evenodd" clip-rule="evenodd" d="M21.381 11.1889C21.381 17.1798 16.6891 22.0364 10.9012 22.0364C5.11343 22.0364 0.421478 17.1798 0.421478 11.1889C0.421478 5.19801 5.11343 0.341431 10.9012 0.341431C16.6891 0.341431 21.381 5.19801 21.381 11.1889ZM14.7121 7.73747C14.7121 9.91598 13.0059 11.682 10.9013 11.682C8.7966 11.682 7.09043 9.91598 7.09043 7.73747C7.09043 5.55897 8.7966 3.79294 10.9013 3.79294C13.0059 3.79294 14.7121 5.55897 14.7121 7.73747ZM4.70864 15.5735C5.77736 14.1521 7.29283 13.1083 9.03678 12.6681C9.58795 13.1491 10.224 13.4234 10.9012 13.4234C11.5785 13.4234 12.2145 13.1491 12.7657 12.6681C14.5096 13.1083 16.025 14.1521 17.0937 15.5735C15.6588 17.482 13.4185 18.7097 10.9012 18.7097C8.38386 18.7097 6.14356 17.482 4.70864 15.5735Z" fill="#C4C4C4"/>
</svg>
