<svg fill="none" height="11" viewBox="0 0 14 11" width="14" xmlns="http://www.w3.org/2000/svg"><path clip-rule="evenodd" d="m.85903.925369c-.481324-.052768-.889451.323191-.8321615.766591l.6123285 4.73987c.002895.04076.008136.08141.015724.12175l.009172.07103c.020813.16117.095899.2961.202891.39769.039858.05155.084898.10076.135116.14701l3.57892 3.29689c.48742.4491 1.27774.4491 1.76519 0l4.01309-3.69687c.4875-.44903.4875-1.17707 0-1.6261l-3.5789-3.29692c-.00832-.00766-.01673-.01519-.02521-.02259-.11263-.16298-.29994-.28483-.5416-.31132zm1.96266 1.692021c0 .4712-.41465.85318-.92618.85318-.51149 0-.926137-.38198-.926137-.85318s.414647-.85318.926137-.85318c.51153 0 .92618.38198.92618.85318zm8.33641 2.64324-2.82574-2.60306v-1.04726l.17781.01949c.24166.0265.42898.14835.5416.31133l.01323.01171.01198.01087 3.57892 3.29692c.4874.44904.4874 1.17707 0 1.62611l-4.01311 3.69686c-.44503.41-1.14256.4457-1.6315.107.04659-.0322.09127-.0679.13369-.107l4.01312-3.69686c.4874-.44904.4874-1.17707 0-1.62611z" fill="#ff9700" fill-rule="evenodd"/></svg>