<svg fill="none" height="224" viewBox="0 0 243 224" width="243" xmlns="http://www.w3.org/2000/svg" xmlns:xlink="http://www.w3.org/1999/xlink"><clipPath id="a"><path d="m11.9221 14.0425h203v203h-203z"/></clipPath><path d="m.843262 1.42041h240.87v221.747h-240.87z" stroke="#bcbcbc" stroke-dasharray="10 10" stroke-linecap="square" stroke-linejoin="bevel"/><g clip-path="url(#a)"><path d="m64.7828 170.785c-13.5412 0-25.5863-8.67-29.9601-21.578l-.2958-.972c-1.0315-3.419-1.4637-6.293-1.4637-9.169v-57.6716l-20.5201 68.4976c-2.63915 10.075 3.3749 20.52 13.4653 23.303l130.7946 35.028c1.633.423 3.265.626 4.873.626 8.424 0 16.122-5.592 18.279-13.831l7.62-24.233z" fill="#eceff1"/><path d="m214.923 41.7915v97.2745c0 10.488-8.544 19.031-19.032 19.031h-131.1081c-.8456 0-1.6913-.085-2.4533-.17-8.8808-1.098-15.8164-8.373-16.4932-17.339-.0852-.508-.0852-1.016-.0852-1.522v-97.2745c0-10.4885 8.5432-19.0317 19.0317-19.0317h131.1081c10.488 0 19.032 8.5432 19.032 19.0317z" fill="#eceff1"/><path d="m104.96 65.053c0 9.3424-7.5733 16.9176-16.9157 16.9176-9.3439 0-16.9176-7.5752-16.9176-16.9176s7.5737-16.9176 16.9176-16.9176c9.3424 0 16.9157 7.5752 16.9157 16.9176z" fill="#ffc107"/><path d="m214.922 115.296v23.77c0 10.488-8.543 19.031-19.031 19.031h-131.1081c-.8457 0-1.6913-.085-2.4533-.17l87.1234-87.1218c5.752-5.7523 15.225-5.7523 20.977 0z" fill="#388e3c"/><path d="m164.678 158.097h-99.895c-.8457 0-1.6913-.085-2.4533-.17-8.8809-1.098-15.8164-8.373-16.4933-17.339l40.1776-40.179c5.7522-5.7506 15.225-5.7506 20.977 0z" fill="#4caf50"/></g></svg>